<?xml version="1.0" encoding="utf-8"?>
<!-- Generator: Adobe Illustrator 24.1.0, SVG Export Plug-In . SVG Version: 6.00 Build 0)  -->
<svg version="1.1" id="图层_1" xmlns="http://www.w3.org/2000/svg" xmlns:xlink="http://www.w3.org/1999/xlink" x="0px" y="0px"
	 viewBox="0 0 200.2 200" style="enable-background:new 0 0 200.2 200;" xml:space="preserve">
<style type="text/css">
	.st0{fill:#2F77F1;}
	.st1{fill:#AFFCFE;}
</style>
<path class="st0" d="M24.5,44.7c-0.7-10.5,7-19.3,17.5-20.3h2.8l67.5,1.6c4.4,0.2,8.6,2.1,11.6,5.4l71,71c7.2,7.2,7.2,19.1-0.2,26.3
	l-65.9,65.9c-7.2,7.2-18.9,7.2-26.3,0.2l-71-71.2c-3.3-3-5.1-7.2-5.4-11.6L24.5,44.7z"/>
<path class="st1" d="M45.9,63c0,10.3,8.3,18.6,18.6,18.6c10.3,0,18.6-8.3,18.6-18.6c0,0,0,0,0,0c0-10.3-8.3-18.6-18.6-18.6
	S45.9,52.8,45.9,63z"/>
</svg>
